# xmcd
#
# Track frame offsets: 
#        150
#        15310
#        28845
#        54987
#        70117
#        87645
#        101488
#        119013
#        136588
#        160408
#        179823
#        204018
#        228903
#        248795
#        265255
#        277300
#        292610
#        310765
#        335150
#
# Disc length: 4792 seconds
#
# Revision: 1
# Processed by: cddbd v1.5.2PL0 Copyright (c) Steve Scherf et al.
# Submitted via: ExactAudioCopy v1.1
#
DISCID=1012b613
DTITLE=Lightning Hopkins - Akella Presents - Greatest Bluesmen - vol. 
DTITLE=20  CD2
DYEAR=2017
DGENRE=Blues
TTITLE0=In The Evening
TTITLE1=Everything
TTITLE2=Goin' Away
TTITLE3=Back To New Orleans
TTITLE4=I Like To Boogie
TTITLE5=Wine Spodee-O-Dee
TTITLE6=Rocky Mountain Blues
TTITLE7=Conversation Blues
TTITLE8=Mama Blues
TTITLE9=Catfish Blues
TTITLE10=I Got A Leak In This Old Building
TTITLE11=Lonesome Graveyard
TTITLE12=Baby, Please Don't Go
TTITLE13=Sun Goin' Down
TTITLE14=Good Times Here, Better Down the Road
TTITLE15=Doin' My Boogie
TTITLE16=Please Help Poor Me
TTITLE17=The Hearse Is Backed Up To The Door
TTITLE18=My Thoughts On The Blues  (Interview December 1964)
EXTD=
EXTT0=
EXTT1=
EXTT2=
EXTT3=
EXTT4=
EXTT5=
EXTT6=
EXTT7=
EXTT8=
EXTT9=
EXTT10=
EXTT11=
EXTT12=
EXTT13=
EXTT14=
EXTT15=
EXTT16=
EXTT17=
EXTT18=
PLAYORDER=
